<svg xmlns="http://www.w3.org/2000/svg" xmlns:xlink="http://www.w3.org/1999/xlink" width="500" zoomAndPan="magnify" viewBox="0 0 375 374.999991" height="500" preserveAspectRatio="xMidYMid meet" version="1.0"><defs><clipPath id="a042f145a5"><path d="M 14.730469 14.730469 L 360.480469 14.730469 L 360.480469 360.480469 L 14.730469 360.480469 Z M 14.730469 14.730469 " clip-rule="nonzero"/></clipPath></defs><g clip-path="url(#a042f145a5)"><path fill="#000000" d="M 187.605469 14.730469 C 92.128906 14.730469 14.730469 92.128906 14.730469 187.605469 C 14.730469 283.082031 92.128906 360.480469 187.605469 360.480469 C 283.082031 360.480469 360.480469 283.082031 360.480469 187.605469 C 360.480469 92.128906 283.082031 14.730469 187.605469 14.730469 Z M 187.605469 75.507812 C 212.605469 75.507812 232.871094 99.460938 232.871094 129.003906 C 232.871094 158.550781 212.605469 182.5 187.605469 182.5 C 162.609375 182.5 142.339844 158.550781 142.339844 129.003906 C 142.339844 99.460938 162.609375 75.507812 187.605469 75.507812 Z M 264.226562 286.199219 L 110.988281 286.199219 C 103.304688 286.199219 97.074219 279.972656 97.074219 272.289062 C 97.074219 236.335938 137.609375 207.191406 187.605469 207.191406 C 237.605469 207.191406 278.136719 236.335938 278.136719 272.289062 C 278.136719 279.972656 271.910156 286.199219 264.226562 286.199219 Z M 264.226562 286.199219 " fill-opacity="1" fill-rule="nonzero"/></g></svg>