<svg xmlns="http://www.w3.org/2000/svg" xmlns:xlink="http://www.w3.org/1999/xlink" width="500" zoomAndPan="magnify" viewBox="0 0 375 374.999991" height="500" preserveAspectRatio="xMidYMid meet" version="1.0"><defs><g/><clipPath id="718b358aec"><path d="M 105 34.054688 L 266 34.054688 L 266 158 L 105 158 Z M 105 34.054688 " clip-rule="nonzero"/></clipPath><clipPath id="111ec36ecb"><path d="M 80 157 L 295 157 L 295 340.804688 L 80 340.804688 Z M 80 157 " clip-rule="nonzero"/></clipPath></defs><g clip-path="url(#718b358aec)"><path fill="#737373" d="M 227.566406 157.445312 L 227.269531 113.316406 C 227.121094 90.308594 208.261719 71.558594 185.246094 71.558594 C 161.832031 71.707031 143.074219 90.65625 143.171875 113.808594 L 143.46875 157.445312 L 106 157.445312 L 105.703125 114.007812 C 105.453125 70.171875 140.894531 34.300781 184.75 34.054688 C 228.851562 34.054688 264.492188 69.527344 264.738281 113.117188 L 265.035156 157.445312 Z M 227.566406 157.445312 " fill-opacity="1" fill-rule="nonzero"/></g><g clip-path="url(#111ec36ecb)"><path fill="#ffc536" d="M 294.1875 171.753906 L 294.1875 326.519531 C 294.1875 334.410156 287.789062 340.804688 279.898438 340.804688 L 94.453125 340.804688 C 86.5625 340.804688 80.164062 334.410156 80.164062 326.519531 L 80.164062 171.753906 C 80.164062 163.863281 86.5625 157.46875 94.453125 157.46875 L 279.898438 157.46875 C 287.789062 157.46875 294.1875 163.863281 294.1875 171.753906 Z M 294.1875 171.753906 " fill-opacity="1" fill-rule="nonzero"/></g><path fill="#ffffff" d="M 221.660156 219.9375 C 220.921875 219.9375 220.191406 219.675781 219.605469 219.140625 C 210.628906 210.960938 199.113281 206.457031 187.175781 206.457031 C 175.234375 206.457031 163.71875 210.960938 154.746094 219.144531 C 153.496094 220.277344 151.570312 220.183594 150.433594 218.945312 C 149.300781 217.699219 149.390625 215.769531 150.632812 214.636719 C 160.738281 205.429688 173.714844 200.363281 187.175781 200.363281 C 200.636719 200.363281 213.613281 205.429688 223.714844 214.636719 C 224.960938 215.769531 225.050781 217.695312 223.914062 218.945312 C 223.3125 219.601562 222.488281 219.9375 221.660156 219.9375 Z M 221.660156 219.9375 " fill-opacity="1" fill-rule="nonzero"/><path fill="#ffffff" d="M 226.824219 239.855469 C 225.84375 239.855469 224.875 239.386719 224.289062 238.507812 C 215.824219 225.90625 201.949219 218.382812 187.175781 218.382812 C 172.402344 218.382812 158.527344 225.90625 150.058594 238.507812 C 149.121094 239.910156 147.222656 240.285156 145.828125 239.339844 C 144.429688 238.402344 144.054688 236.507812 144.992188 235.109375 C 154.59375 220.824219 170.363281 212.292969 187.175781 212.292969 C 203.984375 212.292969 219.757812 220.824219 229.355469 235.113281 C 230.296875 236.511719 229.925781 238.40625 228.523438 239.34375 C 228.003906 239.691406 227.414062 239.855469 226.824219 239.855469 Z M 226.824219 239.855469 " fill-opacity="1" fill-rule="nonzero"/><path fill="#ffffff" d="M 177.542969 297.914062 C 176.757812 297.914062 175.972656 297.613281 175.375 297.011719 C 174.707031 296.339844 159.078125 280.394531 159.078125 265.042969 C 159.078125 249.109375 171.683594 236.144531 187.175781 236.144531 C 202.667969 236.144531 215.269531 249.109375 215.269531 265.042969 C 215.269531 266.726562 213.902344 268.089844 212.222656 268.089844 C 210.539062 268.089844 209.171875 266.726562 209.171875 265.042969 C 209.171875 252.46875 199.304688 242.242188 187.175781 242.242188 C 175.042969 242.242188 165.179688 252.46875 165.179688 265.042969 C 165.179688 277.914062 179.5625 292.570312 179.710938 292.71875 C 180.898438 293.914062 180.886719 295.84375 179.6875 297.03125 C 179.09375 297.621094 178.316406 297.914062 177.542969 297.914062 Z M 177.542969 297.914062 " fill-opacity="1" fill-rule="nonzero"/><path fill="#ffffff" d="M 196.808594 297.914062 C 189.472656 297.914062 172.464844 283.960938 170.820312 268.429688 C 170.238281 262.9375 171.988281 257.320312 175.492188 253.402344 C 178.542969 249.996094 182.660156 248.105469 187.089844 248.082031 L 187.175781 248.082031 C 191.492188 248.082031 195.578125 249.773438 198.683594 252.859375 C 201.929688 256.082031 203.714844 260.414062 203.714844 265.046875 L 203.714844 267.035156 C 203.714844 271.929688 207.527344 275.914062 212.222656 275.914062 C 216.914062 275.914062 220.730469 271.929688 220.730469 267.035156 L 220.730469 266.339844 C 220.730469 247.355469 206.976562 231.566406 189.410156 230.394531 C 180.253906 229.773438 171.46875 232.933594 164.691406 239.269531 C 157.65625 245.84375 153.621094 255.242188 153.621094 265.046875 C 153.621094 273.109375 156.355469 280.96875 161.316406 287.167969 C 162.367188 288.488281 162.152344 290.402344 160.835938 291.453125 C 159.523438 292.507812 157.605469 292.292969 156.546875 290.972656 C 150.726562 283.695312 147.519531 274.484375 147.519531 265.042969 C 147.519531 253.554688 152.261719 242.535156 160.519531 234.8125 C 168.542969 227.308594 178.945312 223.578125 189.808594 224.304688 C 210.566406 225.691406 226.828125 244.152344 226.828125 266.335938 L 226.828125 267.03125 C 226.828125 275.289062 220.273438 282.007812 212.214844 282.007812 C 204.160156 282.007812 197.609375 275.289062 197.609375 267.03125 L 197.609375 265.042969 C 197.609375 262.042969 196.464844 259.253906 194.382812 257.179688 C 192.429688 255.238281 189.871094 254.171875 187.175781 254.171875 C 187.15625 254.171875 187.136719 254.171875 187.117188 254.171875 C 183.683594 254.1875 181.367188 255.972656 180.035156 257.464844 C 177.65625 260.121094 176.476562 263.980469 176.878906 267.785156 C 178.226562 280.460938 192.796875 291.820312 196.804688 291.820312 C 198.488281 291.820312 199.855469 293.183594 199.855469 294.867188 C 199.855469 296.550781 198.492188 297.914062 196.808594 297.914062 Z M 196.808594 297.914062 " fill-opacity="1" fill-rule="nonzero"/><path fill="#ffffff" d="M 208.125 291.949219 C 197.210938 291.949219 183.886719 278.617188 183.886719 263.054688 C 183.886719 261.371094 185.25 260.003906 186.933594 260.003906 C 188.617188 260.003906 189.984375 261.371094 189.984375 263.054688 C 189.984375 275.117188 200.132812 285.851562 208.125 285.851562 C 209.808594 285.851562 211.175781 287.21875 211.175781 288.902344 C 211.175781 290.585938 209.808594 291.949219 208.125 291.949219 Z M 208.125 291.949219 " fill-opacity="1" fill-rule="nonzero"/><g fill="#ffffff" fill-opacity="1"><g transform="translate(155.504877, 183.849994)"><g><path d="M 12.414062 -9.664062 L 12.414062 -2.0625 L 3.664062 -2.0625 L 3.664062 -9.664062 Z M 13.726562 -9.710938 C 13.726562 -10.109375 13.726562 -10.558594 13.757812 -10.957031 C 13.277344 -10.925781 12.703125 -10.925781 12.351562 -10.925781 L 3.757812 -10.925781 C 3.390625 -10.925781 2.960938 -10.941406 2.335938 -10.957031 C 2.367188 -10.574219 2.367188 -10.078125 2.367188 -9.710938 L 2.367188 -1.839844 C 2.367188 -1.28125 2.335938 -0.0976562 2.320312 0.0976562 L 3.695312 0.0976562 C 3.679688 -0.015625 3.679688 -0.398438 3.664062 -0.816406 L 12.398438 -0.816406 C 12.398438 -0.382812 12.382812 -0.015625 12.382812 0.0976562 L 13.757812 0.0976562 C 13.742188 -0.078125 13.726562 -1.3125 13.726562 -1.824219 Z M 13.726562 -9.710938 "/></g></g></g><g fill="#ffffff" fill-opacity="1"><g transform="translate(171.501038, 183.849994)"><g><path d="M 7.726562 -9.214844 L 6.558594 -8.816406 C 6.894531 -8.09375 7.628906 -6.0625 7.808594 -5.34375 L 8.992188 -5.757812 C 8.78125 -6.464844 8 -8.574219 7.726562 -9.214844 Z M 12.140625 -8.75 C 11.902344 -6.703125 11.070312 -4.671875 9.933594 -3.28125 C 8.621094 -1.632812 6.589844 -0.414062 4.734375 0.113281 L 5.792969 1.199219 C 7.582031 0.511719 9.535156 -0.734375 11.007812 -2.609375 C 12.15625 -4.046875 12.847656 -5.757812 13.277344 -7.519531 C 13.34375 -7.726562 13.40625 -7.984375 13.519531 -8.320312 Z M 4.015625 -8.414062 L 2.832031 -7.949219 C 3.152344 -7.390625 4.015625 -5.183594 4.253906 -4.351562 L 5.472656 -4.800781 C 5.167969 -5.632812 4.335938 -7.726562 4.015625 -8.414062 Z M 4.015625 -8.414062 "/></g></g></g><g fill="#ffffff" fill-opacity="1"><g transform="translate(187.4972, 183.849994)"><g><path d="M 12.78125 -9.710938 C 12.511719 -9.664062 12.191406 -9.628906 11.757812 -9.628906 L 7.949219 -9.628906 C 7.984375 -10.160156 8.015625 -10.703125 8.03125 -11.277344 C 8.046875 -11.664062 8.078125 -12.222656 8.125 -12.589844 L 6.621094 -12.589844 C 6.6875 -12.207031 6.734375 -11.613281 6.734375 -11.261719 C 6.734375 -10.6875 6.703125 -10.140625 6.671875 -9.628906 L 3.855469 -9.628906 C 3.246094 -9.628906 2.589844 -9.664062 2.03125 -9.726562 L 2.03125 -8.367188 C 2.589844 -8.429688 3.230469 -8.429688 3.871094 -8.429688 L 6.558594 -8.429688 C 6.128906 -5.136719 4.976562 -3.136719 3.390625 -1.695312 C 2.910156 -1.230469 2.253906 -0.785156 1.757812 -0.511719 L 2.910156 0.433594 C 5.582031 -1.40625 7.246094 -3.839844 7.824219 -8.429688 L 12.300781 -8.429688 C 12.300781 -6.71875 12.09375 -2.785156 11.484375 -1.566406 C 11.308594 -1.167969 11.023438 -1.039062 10.558594 -1.039062 C 9.886719 -1.039062 9.039062 -1.105469 8.175781 -1.214844 L 8.335938 0.113281 C 9.167969 0.160156 10.09375 0.207031 10.910156 0.207031 C 11.789062 0.207031 12.300781 -0.078125 12.621094 -0.75 C 13.34375 -2.289062 13.535156 -6.941406 13.597656 -8.480469 C 13.597656 -8.6875 13.628906 -8.992188 13.679688 -9.261719 Z M 12.78125 -9.710938 "/></g></g></g><g fill="#ffffff" fill-opacity="1"><g transform="translate(203.493362, 183.849994)"><g><path d="M 1.632812 -5.359375 C 2.128906 -5.40625 2.976562 -5.4375 3.855469 -5.4375 L 12.636719 -5.4375 C 13.359375 -5.4375 14.03125 -5.375 14.351562 -5.359375 L 14.351562 -6.925781 C 13.996094 -6.894531 13.421875 -6.847656 12.621094 -6.847656 L 3.855469 -6.847656 C 2.960938 -6.847656 2.113281 -6.894531 1.632812 -6.925781 Z M 1.632812 -5.359375 "/></g></g></g></svg>